<?xml version="1.0" encoding="utf-8" standalone="no"?>
<svg xmlns:xlink="http://www.w3.org/1999/xlink" xmlns="http://www.w3.org/2000/svg" version="1.1">
    <path d="M 73.832727 295.488 
    L 76.566791 283.540763 
    L 79.371167 272.276601 
    L 82.216484 261.755279 
    L 85.121457 251.85314 
    L 88.081752 242.544347 
    L 91.093166 233.803813 
    L 94.151624 225.607186 
    L 97.225181 217.997434 
    L 100.33683 210.877477 
    L 103.482934 204.225475 
    L 106.659974 198.020262 
    L 109.864545 192.24133 
    L 113.124067 186.81977 
    L 116.405612 181.791717 
    L 119.706046 177.138212 
    L 123.022343 172.84091 
    L 126.38412 168.84506 
    L 129.78979 165.14175 
    L 133.204417 161.753626 
    L 136.659003 158.635045 
    L 140.152005 155.777349 
    L 143.716331 153.147791 
    L 147.316669 150.76647 
    L 150.986543 148.60501 
    L 154.725301 146.661077 
    L 158.532206 144.931871 
    L 162.442448 143.401101 
    L 166.419646 142.082024 
    L 170.535859 140.952055 
    L 174.754628 140.024586 
    L 179.112363 139.293672 
    L 183.646165 138.759345 
    L 188.356181 138.428639 
    L 193.279804 138.30622 
    L 198.454657 138.400555 
    L 203.956369 138.725738 
    L 209.822639 139.298347 
    L 216.166836 140.145114 
    L 223.139868 141.305196 
    L 231.043911 142.852181 
    L 240.635496 144.967195 
    L 256.461284 148.726806 
    L 270.398291 151.94572 
    L 279.125712 153.736265 
    L 286.393349 155.00536 
    L 292.779541 155.899194 
    L 298.554594 156.48752 
    L 303.872972 156.810241 
    L 308.848929 156.892139 
    L 313.523019 156.7486 
    L 317.934885 156.392804 
    L 322.123074 155.834461 
    L 326.12491 155.078817 
    L 329.976373 154.125825 
    L 333.679161 152.980634 
    L 337.235194 151.649767 
    L 340.678554 150.125734 
    L 344.041695 148.393787 
    L 347.293288 146.470479 
    L 350.49565 144.316297 
    L 353.617138 141.946517 
    L 356.657687 139.359458 
    L 359.646349 136.524848 
    L 362.581627 133.434281 
    L 365.462026 130.079347 
    L 368.313452 126.414696 
    L 371.105852 122.463239 
    L 373.863906 118.173611 
    L 376.584224 113.528078 
    L 379.263307 108.508307 
    L 381.897542 103.095342 
    L 384.483203 97.269599 
    L 387.016447 91.010851 
    L 389.515456 84.235333 
    L 391.952477 76.976742 
    L 394.323228 69.212443 
    L 396.643065 60.844265 
    L 398.487273 53.568 
    L 398.487273 53.568 
    " style="fill: none; stroke: red; stroke-width: 15; stroke-linecap: round"/>
</svg>