<?xml version="1.0" encoding="utf-8" standalone="no"?>
<!DOCTYPE svg PUBLIC "-//W3C//DTD SVG 1.1//EN"
  "http://www.w3.org/Graphics/SVG/1.1/DTD/svg11.dtd">
<svg xmlns:xlink="http://www.w3.org/1999/xlink" width="460.8pt" height="345.6pt" viewBox="0 0 460.8 345.6" xmlns="http://www.w3.org/2000/svg" version="1.1">
 <metadata>
  <rdf:RDF xmlns:dc="http://purl.org/dc/elements/1.1/" xmlns:cc="http://creativecommons.org/ns#" xmlns:rdf="http://www.w3.org/1999/02/22-rdf-syntax-ns#">
   <cc:Work>
    <dc:type rdf:resource="http://purl.org/dc/dcmitype/StillImage"/>
    <dc:date>2024-05-23T15:07:41.867349</dc:date>
    <dc:format>image/svg+xml</dc:format>
    <dc:creator>
     <cc:Agent>
      <dc:title>Matplotlib v3.7.1, https://matplotlib.org/</dc:title>
     </cc:Agent>
    </dc:creator>
   </cc:Work>
  </rdf:RDF>
 </metadata>
 <defs>
  <style type="text/css">*{stroke-linejoin: round; stroke-linecap: butt}</style>
 </defs>
 <g id="figure_1">
  <g id="patch_1">
   <path d="M 0 345.6 
L 460.8 345.6 
L 460.8 0 
L 0 0 
z
" style="fill: #ffffff"/>
  </g>
  <g id="axes_1">
   <g id="line2d_1">
    <path d="M 73.832727 61.453384 
L 75.519954 68.885111 
L 77.330502 75.873074 
L 79.255014 82.443396 
L 81.284652 88.620776 
L 83.556079 94.803163 
L 85.928078 100.59178 
L 88.391659 106.011828 
L 90.938359 111.087044 
L 93.560201 115.839788 
L 96.419846 120.559775 
L 99.347357 124.963222 
L 102.334762 129.072404 
L 105.554855 133.125763 
L 108.825336 136.895853 
L 112.323518 140.592028 
L 116.047543 144.193988 
L 119.805113 147.525104 
L 123.777054 150.75737 
L 127.95708 153.879289 
L 132.527497 157.007817 
L 137.28711 159.992668 
L 142.411635 162.939618 
L 147.881081 165.826349 
L 153.855216 168.725354 
L 160.475201 171.686566 
L 168.030638 174.81697 
L 177.254524 178.387524 
L 192.903119 184.157639 
L 205.72167 188.984419 
L 213.861604 192.284772 
L 220.45893 195.19748 
L 226.049877 197.905554 
L 230.948124 200.522676 
L 235.21502 203.047802 
L 239.071362 205.586831 
L 242.457133 208.078746 
L 245.47369 210.571395 
L 248.136835 213.05617 
L 250.512774 215.578114 
L 252.55993 218.0712 
L 254.336402 220.577425 
L 255.877875 223.133993 
L 257.179204 225.720954 
L 258.260683 228.364054 
L 259.132722 231.078143 
L 259.820589 233.949739 
L 260.341145 237.099621 
L 260.759556 241.098243 
L 261.293345 245.97871 
L 261.736247 247.885967 
L 262.284786 249.292494 
L 262.964262 250.43497 
L 263.811684 251.423247 
L 264.864848 252.304747 
L 266.201335 253.124544 
L 267.9071 253.902102 
L 270.172697 254.678653 
L 273.273729 255.492576 
L 278.053839 256.49383 
L 291.461078 259.203965 
L 295.678878 260.332751 
L 298.941427 261.429074 
L 301.503519 262.518723 
L 303.517745 263.610689 
L 305.113856 264.723643 
L 306.379775 265.871982 
L 307.408828 267.103107 
L 308.283575 268.502446 
L 309.130666 270.303626 
L 311.172697 274.88624 
L 312.198661 276.468876 
L 313.394591 277.903141 
L 314.832711 279.278395 
L 316.579435 280.637655 
L 318.709048 282.007432 
L 321.289565 283.396244 
L 324.398899 284.810037 
L 328.080225 286.235316 
L 332.456105 287.684763 
L 337.505816 289.118729 
L 343.269966 290.520558 
L 349.639605 291.83905 
L 356.50287 293.031197 
L 363.568867 294.032373 
L 370.44597 294.785571 
L 376.870513 295.269352 
L 382.514574 295.476451 
L 387.203709 295.433805 
L 390.909118 295.188248 
L 393.709672 294.790839 
L 395.695397 294.298163 
L 397.033166 293.750869 
L 397.857347 293.18801 
L 398.303047 292.631544 
L 398.47872 292.069768 
L 398.431156 291.476938 
L 398.143527 290.802125 
L 397.549038 290.010283 
L 396.538681 289.05969 
L 394.982955 287.918661 
L 392.701746 286.535095 
L 389.406527 284.812707 
L 384.534859 282.538421 
L 365.180778 273.745023 
L 361.367455 271.642661 
L 358.357518 269.73896 
L 355.89787 267.926924 
L 353.913715 266.197553 
L 352.301242 264.506042 
L 351.005048 262.831518 
L 349.981095 261.14848 
L 349.213479 259.463902 
L 348.673145 257.746924 
L 348.347118 255.961624 
L 348.239334 254.10913 
L 348.351555 252.1919 
L 348.693089 250.169261 
L 349.290473 247.997373 
L 350.167104 245.677887 
L 351.341613 243.217273 
L 352.825762 240.628215 
L 354.656204 237.882987 
L 356.872791 234.96554 
L 359.465695 231.926387 
L 362.433101 228.79504 
L 365.767915 225.600476 
L 369.638294 222.207229 
L 375.570502 217.057938 
L 376.170437 216.211013 
L 376.330772 215.627464 
L 376.234435 215.151347 
L 375.899539 214.680269 
L 375.208342 214.126108 
L 373.822302 213.336817 
L 369.962986 211.484233 
L 364.882886 208.939723 
L 360.530036 206.507395 
L 356.227522 203.853238 
L 351.725851 200.810481 
L 347.148844 197.443525 
L 342.444298 193.702424 
L 337.689503 189.639482 
L 332.757109 185.131963 
L 327.681816 180.188747 
L 322.499234 174.827197 
L 317.245497 169.073016 
L 311.956873 162.959958 
L 306.39858 156.191457 
L 300.852882 149.089276 
L 295.060704 141.300383 
L 289.330101 133.221283 
L 283.378355 124.436601 
L 277.53755 115.423412 
L 271.502284 105.698525 
L 265.275712 95.221926 
L 259.223035 84.600012 
L 253.007514 73.235183 
L 247.013352 61.827491 
L 242.813804 53.568 
L 242.813804 53.568 
" clip-path="url(#p195ffc04de)" style="fill: none; stroke: #0000ff; stroke-width: 1.5; stroke-linecap: square"/>
   </g>
  </g>
 </g>
 <defs>
  <clipPath id="p195ffc04de">
   <rect x="57.6" y="41.472" width="357.12" height="266.112"/>
  </clipPath>
 </defs>
</svg>
